<mxfile host="app.diagrams.net" agent="Mozilla/5.0 (Macintosh; Intel Mac OS X 10_15_7) AppleWebKit/605.1.15 (KHTML, like Gecko) Version/17.6 Safari/605.1.15" version="26.0.11">
  <diagram name="Page-1" id="gkQpDMrBnV7k84wvWud1">
    <mxGraphModel dx="679" dy="633" grid="1" gridSize="10" guides="1" tooltips="1" connect="1" arrows="1" fold="1" page="1" pageScale="1" pageWidth="850" pageHeight="1100" math="0" shadow="0">
      <root>
        <mxCell id="0" />
        <mxCell id="1" parent="0" />
        <mxCell id="i2a_Fg69G-pDdaZu-HPu-9" style="edgeStyle=orthogonalEdgeStyle;rounded=0;orthogonalLoop=1;jettySize=auto;html=1;exitX=0;exitY=0.25;exitDx=0;exitDy=0;fillColor=#ffe6cc;strokeColor=#d79b00;" edge="1" parent="1">
          <mxGeometry relative="1" as="geometry">
            <mxPoint x="150" y="215" as="targetPoint" />
            <mxPoint x="280" y="200" as="sourcePoint" />
            <Array as="points">
              <mxPoint x="280" y="215" />
              <mxPoint x="221" y="215" />
              <mxPoint x="221" y="216" />
            </Array>
          </mxGeometry>
        </mxCell>
        <mxCell id="i2a_Fg69G-pDdaZu-HPu-10" value="calories burnt" style="edgeLabel;html=1;align=center;verticalAlign=middle;resizable=0;points=[];" vertex="1" connectable="0" parent="i2a_Fg69G-pDdaZu-HPu-9">
          <mxGeometry x="-0.1203" relative="1" as="geometry">
            <mxPoint x="-15" as="offset" />
          </mxGeometry>
        </mxCell>
        <mxCell id="i2a_Fg69G-pDdaZu-HPu-19" style="edgeStyle=orthogonalEdgeStyle;rounded=0;orthogonalLoop=1;jettySize=auto;html=1;exitX=0;exitY=0.75;exitDx=0;exitDy=0;entryX=1;entryY=0.5;entryDx=0;entryDy=0;fillColor=#e1d5e7;strokeColor=#9673a6;" edge="1" parent="1" source="i2a_Fg69G-pDdaZu-HPu-2" target="i2a_Fg69G-pDdaZu-HPu-3">
          <mxGeometry relative="1" as="geometry">
            <Array as="points">
              <mxPoint x="150" y="243" />
            </Array>
          </mxGeometry>
        </mxCell>
        <mxCell id="i2a_Fg69G-pDdaZu-HPu-20" value="Workout Tutorial" style="edgeLabel;html=1;align=center;verticalAlign=middle;resizable=0;points=[];" vertex="1" connectable="0" parent="i2a_Fg69G-pDdaZu-HPu-19">
          <mxGeometry x="0.0415" relative="1" as="geometry">
            <mxPoint as="offset" />
          </mxGeometry>
        </mxCell>
        <mxCell id="i2a_Fg69G-pDdaZu-HPu-23" style="edgeStyle=orthogonalEdgeStyle;rounded=0;orthogonalLoop=1;jettySize=auto;html=1;entryX=0.625;entryY=0;entryDx=0;entryDy=0;entryPerimeter=0;exitX=0.381;exitY=0;exitDx=0;exitDy=0;exitPerimeter=0;fillColor=#f8cecc;strokeColor=#b85450;" edge="1" parent="1" source="i2a_Fg69G-pDdaZu-HPu-2" target="i2a_Fg69G-pDdaZu-HPu-3">
          <mxGeometry relative="1" as="geometry">
            <mxPoint x="90" y="170" as="targetPoint" />
            <mxPoint x="340" y="150" as="sourcePoint" />
            <Array as="points">
              <mxPoint x="341" y="130" />
              <mxPoint x="120" y="130" />
            </Array>
          </mxGeometry>
        </mxCell>
        <mxCell id="i2a_Fg69G-pDdaZu-HPu-24" value="updated streak" style="edgeLabel;html=1;align=center;verticalAlign=middle;resizable=0;points=[];" vertex="1" connectable="0" parent="i2a_Fg69G-pDdaZu-HPu-23">
          <mxGeometry x="-0.0378" y="-1" relative="1" as="geometry">
            <mxPoint as="offset" />
          </mxGeometry>
        </mxCell>
        <mxCell id="i2a_Fg69G-pDdaZu-HPu-26" style="edgeStyle=orthogonalEdgeStyle;rounded=0;orthogonalLoop=1;jettySize=auto;html=1;exitX=0.75;exitY=0;exitDx=0;exitDy=0;entryX=0;entryY=0.5;entryDx=0;entryDy=0;fillColor=#fff2cc;strokeColor=#d6b656;" edge="1" parent="1" source="i2a_Fg69G-pDdaZu-HPu-2" target="i2a_Fg69G-pDdaZu-HPu-3">
          <mxGeometry relative="1" as="geometry">
            <mxPoint x="400" y="80" as="targetPoint" />
            <Array as="points">
              <mxPoint x="400" y="100" />
              <mxPoint x="50" y="100" />
              <mxPoint x="50" y="240" />
            </Array>
          </mxGeometry>
        </mxCell>
        <mxCell id="i2a_Fg69G-pDdaZu-HPu-27" value="reminder notifications" style="edgeLabel;html=1;align=center;verticalAlign=middle;resizable=0;points=[];" vertex="1" connectable="0" parent="i2a_Fg69G-pDdaZu-HPu-26">
          <mxGeometry x="-0.1123" y="-1" relative="1" as="geometry">
            <mxPoint as="offset" />
          </mxGeometry>
        </mxCell>
        <mxCell id="i2a_Fg69G-pDdaZu-HPu-34" style="edgeStyle=orthogonalEdgeStyle;rounded=0;orthogonalLoop=1;jettySize=auto;html=1;exitX=0;exitY=1;exitDx=0;exitDy=0;entryX=0.5;entryY=1;entryDx=0;entryDy=0;fillColor=#d5e8d4;strokeColor=#82b366;" edge="1" parent="1" source="i2a_Fg69G-pDdaZu-HPu-2" target="i2a_Fg69G-pDdaZu-HPu-3">
          <mxGeometry relative="1" as="geometry">
            <Array as="points">
              <mxPoint x="280" y="360" />
              <mxPoint x="110" y="360" />
            </Array>
          </mxGeometry>
        </mxCell>
        <mxCell id="i2a_Fg69G-pDdaZu-HPu-35" value="friend added" style="edgeLabel;html=1;align=center;verticalAlign=middle;resizable=0;points=[];" vertex="1" connectable="0" parent="i2a_Fg69G-pDdaZu-HPu-34">
          <mxGeometry x="-0.0235" y="3" relative="1" as="geometry">
            <mxPoint as="offset" />
          </mxGeometry>
        </mxCell>
        <mxCell id="i2a_Fg69G-pDdaZu-HPu-44" style="edgeStyle=orthogonalEdgeStyle;rounded=0;orthogonalLoop=1;jettySize=auto;html=1;exitX=1;exitY=0.5;exitDx=0;exitDy=0;fillColor=#6a00ff;strokeColor=#3700CC;entryX=0;entryY=0.25;entryDx=0;entryDy=0;" edge="1" parent="1" source="i2a_Fg69G-pDdaZu-HPu-2" target="i2a_Fg69G-pDdaZu-HPu-11">
          <mxGeometry relative="1" as="geometry">
            <mxPoint x="550" y="215" as="targetPoint" />
          </mxGeometry>
        </mxCell>
        <mxCell id="i2a_Fg69G-pDdaZu-HPu-45" value="workout review" style="edgeLabel;html=1;align=center;verticalAlign=middle;resizable=0;points=[];" vertex="1" connectable="0" parent="i2a_Fg69G-pDdaZu-HPu-44">
          <mxGeometry x="-0.0045" y="-2" relative="1" as="geometry">
            <mxPoint x="2" y="-2" as="offset" />
          </mxGeometry>
        </mxCell>
        <mxCell id="i2a_Fg69G-pDdaZu-HPu-2" value="Lunki" style="rounded=1;whiteSpace=wrap;html=1;" vertex="1" parent="1">
          <mxGeometry x="280" y="160" width="160" height="110" as="geometry" />
        </mxCell>
        <mxCell id="i2a_Fg69G-pDdaZu-HPu-4" style="edgeStyle=orthogonalEdgeStyle;rounded=0;orthogonalLoop=1;jettySize=auto;html=1;exitX=1;exitY=0.75;exitDx=0;exitDy=0;fillColor=#e1d5e7;strokeColor=#9673a6;" edge="1" parent="1" source="i2a_Fg69G-pDdaZu-HPu-3">
          <mxGeometry relative="1" as="geometry">
            <mxPoint x="280" y="260" as="targetPoint" />
          </mxGeometry>
        </mxCell>
        <mxCell id="i2a_Fg69G-pDdaZu-HPu-13" value="&lt;font style=&quot;font-size: 10px;&quot;&gt;Workout Tutorial Request&lt;/font&gt;" style="edgeLabel;html=1;align=center;verticalAlign=middle;resizable=0;points=[];" vertex="1" connectable="0" parent="i2a_Fg69G-pDdaZu-HPu-4">
          <mxGeometry x="-0.2033" y="-1" relative="1" as="geometry">
            <mxPoint x="8" y="9" as="offset" />
          </mxGeometry>
        </mxCell>
        <mxCell id="i2a_Fg69G-pDdaZu-HPu-21" style="edgeStyle=orthogonalEdgeStyle;rounded=0;orthogonalLoop=1;jettySize=auto;html=1;exitX=1;exitY=0;exitDx=0;exitDy=0;entryX=0.25;entryY=0;entryDx=0;entryDy=0;fillColor=#f8cecc;strokeColor=#b85450;" edge="1" parent="1" source="i2a_Fg69G-pDdaZu-HPu-3" target="i2a_Fg69G-pDdaZu-HPu-2">
          <mxGeometry relative="1" as="geometry">
            <mxPoint x="320" y="140" as="targetPoint" />
            <Array as="points">
              <mxPoint x="150" y="170" />
              <mxPoint x="151" y="170" />
              <mxPoint x="151" y="140" />
              <mxPoint x="320" y="140" />
            </Array>
          </mxGeometry>
        </mxCell>
        <mxCell id="i2a_Fg69G-pDdaZu-HPu-22" value="Picture of workout + length" style="edgeLabel;html=1;align=center;verticalAlign=middle;resizable=0;points=[];" vertex="1" connectable="0" parent="i2a_Fg69G-pDdaZu-HPu-21">
          <mxGeometry x="-0.176" y="-4" relative="1" as="geometry">
            <mxPoint x="27" as="offset" />
          </mxGeometry>
        </mxCell>
        <mxCell id="i2a_Fg69G-pDdaZu-HPu-3" value="User 1" style="whiteSpace=wrap;html=1;aspect=fixed;" vertex="1" parent="1">
          <mxGeometry x="70" y="200" width="80" height="80" as="geometry" />
        </mxCell>
        <mxCell id="i2a_Fg69G-pDdaZu-HPu-6" style="edgeStyle=orthogonalEdgeStyle;rounded=0;orthogonalLoop=1;jettySize=auto;html=1;exitX=0.5;exitY=0;exitDx=0;exitDy=0;entryX=0.5;entryY=1;entryDx=0;entryDy=0;fillColor=#ffe6cc;strokeColor=#d79b00;" edge="1" parent="1" source="i2a_Fg69G-pDdaZu-HPu-5" target="i2a_Fg69G-pDdaZu-HPu-2">
          <mxGeometry relative="1" as="geometry" />
        </mxCell>
        <mxCell id="i2a_Fg69G-pDdaZu-HPu-7" value="vital signs" style="edgeLabel;html=1;align=center;verticalAlign=middle;resizable=0;points=[];" vertex="1" connectable="0" parent="i2a_Fg69G-pDdaZu-HPu-6">
          <mxGeometry x="-0.1" y="-1" relative="1" as="geometry">
            <mxPoint as="offset" />
          </mxGeometry>
        </mxCell>
        <mxCell id="i2a_Fg69G-pDdaZu-HPu-5" value="FitBit, Apple Watch, etc." style="whiteSpace=wrap;html=1;aspect=fixed;" vertex="1" parent="1">
          <mxGeometry x="320" y="410" width="80" height="80" as="geometry" />
        </mxCell>
        <mxCell id="i2a_Fg69G-pDdaZu-HPu-11" value="Database" style="whiteSpace=wrap;html=1;aspect=fixed;" vertex="1" parent="1">
          <mxGeometry x="560" y="190" width="80" height="80" as="geometry" />
        </mxCell>
        <mxCell id="i2a_Fg69G-pDdaZu-HPu-14" style="edgeStyle=orthogonalEdgeStyle;rounded=0;orthogonalLoop=1;jettySize=auto;html=1;exitX=1;exitY=0.75;exitDx=0;exitDy=0;entryX=-0.05;entryY=0.863;entryDx=0;entryDy=0;entryPerimeter=0;fillColor=#e1d5e7;strokeColor=#9673a6;" edge="1" parent="1" target="i2a_Fg69G-pDdaZu-HPu-11">
          <mxGeometry relative="1" as="geometry">
            <mxPoint x="440" y="260" as="sourcePoint" />
            <mxPoint x="530" y="260.53999999999996" as="targetPoint" />
          </mxGeometry>
        </mxCell>
        <mxCell id="i2a_Fg69G-pDdaZu-HPu-15" value="Workout Tutorial Request" style="edgeLabel;html=1;align=center;verticalAlign=middle;resizable=0;points=[];" vertex="1" connectable="0" parent="i2a_Fg69G-pDdaZu-HPu-14">
          <mxGeometry x="-0.3369" y="-1" relative="1" as="geometry">
            <mxPoint x="20" y="9" as="offset" />
          </mxGeometry>
        </mxCell>
        <mxCell id="i2a_Fg69G-pDdaZu-HPu-17" style="edgeStyle=orthogonalEdgeStyle;rounded=0;orthogonalLoop=1;jettySize=auto;html=1;exitX=0;exitY=0.75;exitDx=0;exitDy=0;entryX=1.013;entryY=0.818;entryDx=0;entryDy=0;entryPerimeter=0;fillColor=#e1d5e7;strokeColor=#9673a6;" edge="1" parent="1" source="i2a_Fg69G-pDdaZu-HPu-11" target="i2a_Fg69G-pDdaZu-HPu-2">
          <mxGeometry relative="1" as="geometry" />
        </mxCell>
        <mxCell id="i2a_Fg69G-pDdaZu-HPu-18" value="Workout Tutorial" style="text;html=1;align=center;verticalAlign=middle;resizable=0;points=[];autosize=1;strokeColor=none;fillColor=none;" vertex="1" parent="1">
          <mxGeometry x="440" y="220" width="110" height="30" as="geometry" />
        </mxCell>
        <mxCell id="i2a_Fg69G-pDdaZu-HPu-29" style="edgeStyle=orthogonalEdgeStyle;rounded=0;orthogonalLoop=1;jettySize=auto;html=1;exitX=0;exitY=0.25;exitDx=0;exitDy=0;entryX=0.669;entryY=0.009;entryDx=0;entryDy=0;entryPerimeter=0;fillColor=#fff2cc;strokeColor=#d6b656;" edge="1" parent="1" source="i2a_Fg69G-pDdaZu-HPu-3" target="i2a_Fg69G-pDdaZu-HPu-2">
          <mxGeometry relative="1" as="geometry">
            <Array as="points">
              <mxPoint x="60" y="220" />
              <mxPoint x="60" y="120" />
              <mxPoint x="387" y="120" />
            </Array>
          </mxGeometry>
        </mxCell>
        <mxCell id="i2a_Fg69G-pDdaZu-HPu-30" value="set goal" style="edgeLabel;html=1;align=center;verticalAlign=middle;resizable=0;points=[];" vertex="1" connectable="0" parent="i2a_Fg69G-pDdaZu-HPu-29">
          <mxGeometry x="0.3557" y="2" relative="1" as="geometry">
            <mxPoint x="-154" y="2" as="offset" />
          </mxGeometry>
        </mxCell>
        <mxCell id="i2a_Fg69G-pDdaZu-HPu-31" value="User 2" style="whiteSpace=wrap;html=1;aspect=fixed;" vertex="1" parent="1">
          <mxGeometry x="70" y="410" width="80" height="80" as="geometry" />
        </mxCell>
        <mxCell id="i2a_Fg69G-pDdaZu-HPu-32" style="edgeStyle=orthogonalEdgeStyle;rounded=0;orthogonalLoop=1;jettySize=auto;html=1;exitX=1;exitY=0.5;exitDx=0;exitDy=0;entryX=0.138;entryY=1.036;entryDx=0;entryDy=0;entryPerimeter=0;fillColor=#d5e8d4;strokeColor=#82b366;" edge="1" parent="1" source="i2a_Fg69G-pDdaZu-HPu-31" target="i2a_Fg69G-pDdaZu-HPu-2">
          <mxGeometry relative="1" as="geometry" />
        </mxCell>
        <mxCell id="i2a_Fg69G-pDdaZu-HPu-33" value="referral link" style="edgeLabel;html=1;align=center;verticalAlign=middle;resizable=0;points=[];" vertex="1" connectable="0" parent="i2a_Fg69G-pDdaZu-HPu-32">
          <mxGeometry x="-0.5627" y="-1" relative="1" as="geometry">
            <mxPoint as="offset" />
          </mxGeometry>
        </mxCell>
        <mxCell id="i2a_Fg69G-pDdaZu-HPu-36" style="edgeStyle=orthogonalEdgeStyle;rounded=0;orthogonalLoop=1;jettySize=auto;html=1;exitX=1;exitY=0.75;exitDx=0;exitDy=0;entryX=0.188;entryY=1.027;entryDx=0;entryDy=0;entryPerimeter=0;" edge="1" parent="1" source="i2a_Fg69G-pDdaZu-HPu-31" target="i2a_Fg69G-pDdaZu-HPu-2">
          <mxGeometry relative="1" as="geometry" />
        </mxCell>
        <mxCell id="i2a_Fg69G-pDdaZu-HPu-37" value="groupchat invitation" style="edgeLabel;html=1;align=center;verticalAlign=middle;resizable=0;points=[];" vertex="1" connectable="0" parent="i2a_Fg69G-pDdaZu-HPu-36">
          <mxGeometry x="-0.6658" y="1" relative="1" as="geometry">
            <mxPoint as="offset" />
          </mxGeometry>
        </mxCell>
        <mxCell id="i2a_Fg69G-pDdaZu-HPu-38" value="" style="endArrow=classic;html=1;rounded=0;exitX=0.069;exitY=1;exitDx=0;exitDy=0;exitPerimeter=0;entryX=0.25;entryY=1;entryDx=0;entryDy=0;" edge="1" parent="1" source="i2a_Fg69G-pDdaZu-HPu-2" target="i2a_Fg69G-pDdaZu-HPu-3">
          <mxGeometry width="50" height="50" relative="1" as="geometry">
            <mxPoint x="330" y="350" as="sourcePoint" />
            <mxPoint x="90" y="400" as="targetPoint" />
            <Array as="points">
              <mxPoint x="290" y="380" />
              <mxPoint x="190" y="380" />
              <mxPoint x="90" y="380" />
            </Array>
          </mxGeometry>
        </mxCell>
        <mxCell id="i2a_Fg69G-pDdaZu-HPu-39" value="invitation from User 2" style="edgeLabel;html=1;align=center;verticalAlign=middle;resizable=0;points=[];" vertex="1" connectable="0" parent="i2a_Fg69G-pDdaZu-HPu-38">
          <mxGeometry x="0.0976" relative="1" as="geometry">
            <mxPoint as="offset" />
          </mxGeometry>
        </mxCell>
        <mxCell id="i2a_Fg69G-pDdaZu-HPu-41" style="edgeStyle=orthogonalEdgeStyle;rounded=0;orthogonalLoop=1;jettySize=auto;html=1;exitX=1;exitY=1;exitDx=0;exitDy=0;entryX=0.9;entryY=1.009;entryDx=0;entryDy=0;entryPerimeter=0;fillColor=#6a00ff;strokeColor=#3700CC;" edge="1" parent="1" source="i2a_Fg69G-pDdaZu-HPu-31" target="i2a_Fg69G-pDdaZu-HPu-2">
          <mxGeometry relative="1" as="geometry" />
        </mxCell>
        <mxCell id="i2a_Fg69G-pDdaZu-HPu-42" value="workout review&amp;nbsp;" style="edgeLabel;html=1;align=center;verticalAlign=middle;resizable=0;points=[];" vertex="1" connectable="0" parent="i2a_Fg69G-pDdaZu-HPu-41">
          <mxGeometry x="-0.3096" y="3" relative="1" as="geometry">
            <mxPoint x="-34" as="offset" />
          </mxGeometry>
        </mxCell>
        <mxCell id="i2a_Fg69G-pDdaZu-HPu-46" style="edgeStyle=orthogonalEdgeStyle;rounded=0;orthogonalLoop=1;jettySize=auto;html=1;exitX=0;exitY=0.75;exitDx=0;exitDy=0;entryX=0.95;entryY=-0.009;entryDx=0;entryDy=0;entryPerimeter=0;fillColor=#a0522d;strokeColor=#6D1F00;" edge="1" parent="1" source="i2a_Fg69G-pDdaZu-HPu-3" target="i2a_Fg69G-pDdaZu-HPu-2">
          <mxGeometry relative="1" as="geometry">
            <Array as="points">
              <mxPoint x="20" y="260" />
              <mxPoint x="20" y="70" />
              <mxPoint x="432" y="70" />
            </Array>
          </mxGeometry>
        </mxCell>
        <mxCell id="i2a_Fg69G-pDdaZu-HPu-47" value="SSO Details" style="edgeLabel;html=1;align=center;verticalAlign=middle;resizable=0;points=[];" vertex="1" connectable="0" parent="i2a_Fg69G-pDdaZu-HPu-46">
          <mxGeometry x="-0.0103" y="1" relative="1" as="geometry">
            <mxPoint as="offset" />
          </mxGeometry>
        </mxCell>
        <mxCell id="i2a_Fg69G-pDdaZu-HPu-48" value="" style="endArrow=classic;html=1;rounded=0;entryX=-0.012;entryY=0.625;entryDx=0;entryDy=0;entryPerimeter=0;fillColor=#a0522d;strokeColor=#6D1F00;" edge="1" parent="1" target="i2a_Fg69G-pDdaZu-HPu-3">
          <mxGeometry width="50" height="50" relative="1" as="geometry">
            <mxPoint x="410" y="160" as="sourcePoint" />
            <mxPoint x="40" y="90" as="targetPoint" />
            <Array as="points">
              <mxPoint x="410" y="80" />
              <mxPoint x="220" y="80" />
              <mxPoint x="30" y="80" />
              <mxPoint x="30" y="170" />
              <mxPoint x="30" y="210" />
              <mxPoint x="30" y="250" />
            </Array>
          </mxGeometry>
        </mxCell>
        <mxCell id="i2a_Fg69G-pDdaZu-HPu-49" value="Access to Account" style="edgeLabel;html=1;align=center;verticalAlign=middle;resizable=0;points=[];" vertex="1" connectable="0" parent="i2a_Fg69G-pDdaZu-HPu-48">
          <mxGeometry x="-0.1152" y="-1" relative="1" as="geometry">
            <mxPoint as="offset" />
          </mxGeometry>
        </mxCell>
      </root>
    </mxGraphModel>
  </diagram>
</mxfile>
